<svg width="100" height="100" viewBox="0 0 100 100" fill="none" xmlns="http://www.w3.org/2000/svg">
<g clip-path="url(#clip0)">
<path d="M97.0647 44.9238H2.93535C1.31426 44.9238 0 46.2381 0 47.8592C0 58.884 5.28437 69.209 14.8799 76.932C24.2889 84.5053 36.7615 88.676 50 88.676C63.2385 88.676 75.7111 84.5051 85.1201 76.9322C94.7156 69.2092 100 58.8842 100 47.8592C100 46.2381 98.6857 44.9238 97.0647 44.9238Z" fill="#2C2F40"/>
<path d="M98.9776 12.0323C97.7477 10.9763 95.8946 11.1167 94.8381 12.3462L83.0393 26.0817C83.8967 27.337 84.601 28.6839 85.1379 30.1005C85.6645 30.3261 86.1805 30.5761 86.6854 30.8472L99.2915 16.1718C100.348 14.9421 100.207 13.0888 98.9776 12.0323Z" fill="#2C2F40"/>
<path d="M80.3307 34.7087C79.4197 29.2853 75.2472 24.9532 69.9066 23.8058C69.0578 17.2093 63.4056 12.0952 56.582 12.0952C50.8674 12.0952 45.9748 15.6813 44.0369 20.7216C42.0972 19.6739 39.9051 19.1007 37.6551 19.1007C30.2472 19.1007 24.2205 25.1274 24.2205 32.5353C24.2205 32.5823 24.2207 32.6296 24.2213 32.6769C19.998 33.2872 16.3439 35.6751 14.0385 39.0534H87.7148C85.8244 36.8812 83.251 35.3187 80.3307 34.7087Z" fill="#2C2F40"/>
</g>
<defs>
<clipPath id="clip0">
<rect width="100" height="100" fill="white"/>
</clipPath>
</defs>
</svg>
