<svg width="29" height="26" viewBox="0 0 29 26" fill="none" xmlns="http://www.w3.org/2000/svg">
<path d="M9.71226 3.95304L12.4481 3.22642L14.0947 0.198846H11.9009L10.1226 0.683258L8.07076 1.40988L6.70283 2.01539L5.60849 2.74201L4.24057 3.71083L3.28302 4.67965L2.32547 6.01179L1.64151 7.10171L0.957547 8.43385L0.410377 9.76598L0 11.4614V13.1569V14.3679L0.410377 16.1844L0.957547 17.3955L1.64151 19.212L2.59906 20.7863L3.96698 21.8763L4.92453 22.8451L6.01887 23.8139L8.48113 24.7827L10.1226 25.3883L11.6274 25.7516L13.1321 25.9938H14.2264H15.184L16.5519 25.7516L18.0566 25.3883L20.2453 24.7827L22.434 23.8139L24.2123 22.4818L25.8538 21.1497L27.0849 19.6964L27.7689 18.1221L28.5896 16.4266L29 14.6101V12.7936V11.0981L28.5896 9.52377L27.7689 7.58612L27.0849 6.3751L26.1274 5.28517L24.7594 3.95304L23.5283 2.74201L22.0236 2.01539L20.9292 1.40988L19.0142 0.683258H17.3726L8.48113 13.6413H15.4575L13.1321 20.7863L20.9292 10.4926H14.2264L19.0142 3.95304L20.2453 4.67965L22.434 6.01179L24.2123 7.94943L25.4434 10.4926V12.3091V13.6413V15.7L24.2123 18.1221L22.434 20.1808L20.2453 21.513L18.0566 22.4818L15.4575 23.0873H13.1321L10.6698 22.4818L8.48113 21.513L6.70283 20.1808L4.78774 18.1221L3.96698 15.7L3.28302 13.6413V12.3091L3.96698 9.76598L4.78774 7.94943L6.01887 6.7384L7.52358 5.28517L9.71226 3.95304Z" fill="white"/>
</svg>
