<svg width="82" height="82" viewBox="0 0 82 82" fill="none" xmlns="http://www.w3.org/2000/svg">
<path d="M26.2384 24.1836H38.5977V5.2052C33.4384 6.89933 28.7985 14.1413 26.2384 24.1836Z" fill="white"/>
<path d="M26.2384 57.8164C28.7985 67.8587 33.4384 75.1006 38.5977 76.7948V57.8164H26.2384Z" fill="white"/>
<path d="M79.5977 28.9883H2.40234C1.07561 28.9883 0 30.0636 0 31.3906V50.6094C0 51.9361 1.07561 53.0117 2.40234 53.0117H79.5977C80.9244 53.0117 82 51.9361 82 50.6094V31.3906C82 30.0636 80.9244 28.9883 79.5977 28.9883ZM76.7818 37.2698L71.9771 46.8792C71.5689 47.6933 70.7385 48.207 69.8281 48.207C68.9178 48.207 68.0874 47.6933 67.6791 46.8792L65.0234 41.5678L62.3677 46.8792C61.5513 48.5073 58.8862 48.5073 58.0698 46.8792L53.4669 37.671C53.19 37.3311 53.0322 36.9042 52.981 36.4484C52.9513 36.7261 52.8906 37.0052 52.7584 37.2698L47.9537 46.8792C47.5454 47.6933 46.715 48.207 45.8047 48.207C44.8944 48.207 44.0639 47.6933 43.6557 46.8792L41 41.5678L38.3443 46.8792C37.5278 48.5073 34.8628 48.5073 34.0463 46.8792L29.2416 37.2698C29.1143 37.0153 29.0595 36.7466 29.0275 36.4794C28.9671 36.9971 28.7717 37.4689 28.4556 37.8281L23.9301 46.8792C23.522 47.6933 22.6916 48.207 21.7812 48.207C20.8709 48.207 20.0405 47.6933 19.6323 46.8792L16.9766 41.5678L14.3209 46.8792C13.9126 47.6933 13.0822 48.207 12.1719 48.207C11.2615 48.207 10.4311 47.6933 10.0229 46.8792L5.21821 37.2698C4.62467 36.0827 5.10562 34.6399 6.2927 34.0463C7.47738 33.4598 8.91798 33.9313 9.51616 35.1208L12.1719 40.4322L14.8276 35.1208C15.6775 33.4153 18.237 33.3436 19.1255 35.1208L21.7812 40.4322L24.437 35.1208C24.8686 34.2574 25.7765 33.7883 26.7408 33.7976C27.9825 33.8791 28.9695 34.9032 29.0218 36.1213C29.0504 35.2691 29.4998 34.4544 30.3161 34.0462C31.5056 33.4597 32.9437 33.9312 33.5396 35.1207L36.1953 40.4322L38.851 35.1208C39.6675 33.4927 42.3325 33.4927 43.149 35.1208L45.8047 40.4322L48.4604 35.1208C49.0539 33.9313 50.4968 33.4598 51.6839 34.0463C52.4933 34.4511 52.9393 35.2554 52.9754 36.0994C53.022 34.8926 53.8801 33.8879 55.1136 33.8071C56.1037 33.7837 57.1313 34.2576 57.563 35.1208L60.2188 40.4322L62.8745 35.1208C63.6909 33.4927 66.3559 33.4927 67.1724 35.1208L69.8281 40.4322L72.4838 35.1208C73.0798 33.9313 74.5178 33.4598 75.7073 34.0463C76.8944 34.6399 77.3753 36.0827 76.7818 37.2698Z" fill="white"/>
<path d="M43.4023 57.8164V76.7948C48.5616 75.1006 53.2015 67.8587 55.7616 57.8164H43.4023Z" fill="white"/>
<path d="M43.4023 5.2052V24.1836H55.7616C53.2015 14.1413 48.5616 6.89933 43.4023 5.2052Z" fill="white"/>
<path d="M21.3038 57.8164H3.93085C10.4974 72.234 25.0378 82 41 82C32.3217 82 24.7404 72.4428 21.3038 57.8164Z" fill="white"/>
<path d="M60.6962 57.8164C57.2595 72.4428 49.6782 82 41 82C56.9621 82 71.5026 72.234 78.0691 57.8164H60.6962Z" fill="white"/>
<path d="M3.93085 24.1836H21.3038C24.7404 9.55716 32.3217 0 41 0C25.0378 0 10.4974 9.76601 3.93085 24.1836Z" fill="white"/>
<path d="M41 0C49.6782 0 57.2595 9.55716 60.6962 24.1836H78.0691C71.5026 9.76601 56.9621 0 41 0Z" fill="white"/>
</svg>
