<svg width="106" height="106" viewBox="0 0 106 106" fill="none" xmlns="http://www.w3.org/2000/svg">
<path d="M53 0C42.7095 0 34.3671 8.54918 34.3671 18.8399C34.3671 29.1307 42.7093 37.4728 53 37.4728C63.2907 37.4728 71.6329 29.1307 71.6329 18.8399C71.6329 8.54918 63.2905 0 53 0Z" fill="#2C2F40"/>
<path d="M66.8836 64.0764C58.7893 64.0764 56.0204 73.7355 55.9931 73.8326C55.9848 73.8622 55.9533 73.8754 55.9442 73.9046L55.945 73.9038C55.5444 75.1998 54.3708 76.0979 53.0089 76.1039C53.0058 76.1039 53.0029 76.1039 52.9967 76.1039C51.6108 76.1039 50.3916 75.1789 50.0094 73.8446C49.8972 73.4442 47.1344 64.0762 39.116 64.0762C32.9688 64.0762 28.3348 69.2197 28.3348 76.0433C28.3348 84.1649 35.6588 92.316 47.7956 102.56C48.8316 103.433 49.897 104.333 50.9895 105.261C52.1473 106.244 53.8491 106.247 55.0072 105.264C56.0989 104.337 57.1624 103.44 58.1949 102.566C67.4283 94.777 77.6648 84.7634 77.6648 76.0428C77.6648 69.2199 73.031 64.0764 66.8836 64.0764Z" fill="#2C2F40"/>
<path d="M68.838 37.7834C64.5524 41.4481 59.0867 43.6839 53 43.6839C46.9133 43.6839 41.4476 41.4479 37.1621 37.7834C19.7714 39.5223 6.41779 54.1388 6.41779 71.8402V76.1879C6.41779 86.2497 10.3307 95.6901 17.4114 102.771C17.4114 102.833 17.4114 102.833 17.4735 102.833C19.3989 104.758 22.0696 105.876 24.8024 105.938C29.3435 105.825 33.0169 102.379 33.6218 97.9482C27.8328 92.0008 22.1241 84.38 22.1241 76.0434C22.1241 65.4347 30.2294 57.8654 39.0874 57.8654C39.0934 57.8654 39.098 57.8664 39.1042 57.8664C39.1084 57.8664 39.1121 57.8654 39.1164 57.8654C44.9616 57.8654 49.8455 61.0804 53.0031 65.7837C56.1902 61.0356 60.9416 57.8654 66.8838 57.8654C66.8879 57.8654 66.8917 57.8664 66.896 57.8664C66.902 57.8664 66.9066 57.8654 66.9128 57.8654C76.3228 57.8654 83.8761 65.9369 83.8761 76.0434C83.5834 76.8299 85.1361 84.4882 72.3701 97.8648C72.9403 102.335 76.6284 105.824 81.198 105.938C83.9308 105.876 86.6015 104.758 88.5269 102.833C88.589 102.833 88.589 102.833 88.589 102.771C95.6693 95.6901 99.5822 86.2497 99.5822 76.1879V71.8402C99.5822 54.1388 86.2284 39.5223 68.838 37.7834Z" fill="#2C2F40"/>
</svg>
