<svg width="100" height="100" viewBox="0 0 100 100" fill="none" xmlns="http://www.w3.org/2000/svg">
<path d="M15.297 11.8013C15.2943 11.8013 15.2913 11.8013 15.2886 11.8013C14.3428 11.8013 13.4533 12.17 12.7815 12.84C12.1024 13.5174 11.7283 14.4195 11.7283 15.3797V69.0382C11.7283 71.0058 13.3354 72.6106 15.3112 72.6156C23.6405 72.6355 37.5954 74.3715 47.2224 84.446V28.2909C47.2224 27.6239 47.052 26.9973 46.7305 26.4788C38.8291 13.7541 23.6452 11.8208 15.297 11.8013Z" fill="#2C2F40"/>
<path d="M88.272 69.038V15.3792C88.272 14.419 87.8979 13.5169 87.2188 12.8395C86.5471 12.1695 85.6568 11.8008 84.7121 11.8008C84.709 11.8008 84.706 11.8008 84.7033 11.8008C76.3555 11.8206 61.1716 13.754 53.2699 26.4786C52.9483 26.9971 52.7783 27.6237 52.7783 28.2907V84.4455C62.4053 74.371 76.3602 72.635 84.6895 72.6151C86.6649 72.6101 88.272 71.0054 88.272 69.038Z" fill="#2C2F40"/>
<path d="M96.4222 24.1758H93.8276V69.0382C93.8276 74.0621 89.7343 78.1588 84.7027 78.1713C77.6376 78.1881 65.9884 79.5696 57.7383 87.378C72.007 83.8844 87.0488 86.1555 95.6212 88.109C96.6916 88.3528 97.7976 88.1009 98.6552 87.4174C99.5098 86.7356 100 85.7164 100 84.6225V27.7536C100 25.7808 98.395 24.1758 96.4222 24.1758Z" fill="#2C2F40"/>
<path d="M6.17241 69.0382V24.1758H3.57779C1.60539 24.1758 0 25.7808 0 27.7536V84.6214C0 85.7157 0.490237 86.7346 1.34479 87.4164C2.20169 88.0996 3.30675 88.3524 4.3788 88.108C12.9512 86.1541 27.9934 83.8834 42.2614 87.377C34.0116 79.5689 22.3624 78.1877 15.2974 78.1709C10.266 78.1588 6.17241 74.0621 6.17241 69.0382Z" fill="#2C2F40"/>
</svg>
