<svg width="101" height="101" viewBox="0 0 101 101" fill="none" xmlns="http://www.w3.org/2000/svg">
<path d="M91.7031 6.3125H47.3299C42.1948 6.3125 38.033 10.4751 38.033 15.6094V37.4666C40.3786 38.6325 42.913 39.8931 45.2786 41.069L48.898 33.8272C51.0895 29.4481 56.4318 27.6688 60.8094 29.8565C65.1963 32.0518 66.974 37.3795 64.7779 41.7671L58.3259 54.6742C58.497 56.3825 58.3452 58.1047 57.8635 59.7715H62.1233L50.8884 90.6651C50.2218 92.4975 51.5102 94.6359 53.6701 94.6359C54.8776 94.6359 56.0134 93.8907 56.4496 92.6871L68.4196 59.7715H70.4932L82.5849 92.6971C83.0249 93.8946 84.1577 94.6359 85.3644 94.6359C87.3825 94.6359 88.862 92.6201 88.14 90.6574L76.7972 59.7715H91.7031C96.8374 59.7715 101 55.6089 101 50.4746V15.6094C101 10.4751 96.8374 6.3125 91.7031 6.3125V6.3125ZM85.3628 47.0949H72.0867C70.4531 47.0949 69.1277 45.7695 69.1277 44.1359C69.1277 42.5007 70.4531 41.1769 72.0867 41.1769H85.3628C86.998 41.1769 88.3218 42.5007 88.3218 44.1359C88.3218 45.7695 86.998 47.0949 85.3628 47.0949ZM85.3628 36.001H72.0867C70.4531 36.001 69.1277 34.6771 69.1277 33.042C69.1277 31.4084 70.4531 30.083 72.0867 30.083H85.3628C86.998 30.083 88.3218 31.4084 88.3218 33.042C88.3218 34.6771 86.998 36.001 85.3628 36.001ZM85.3628 24.9086H53.6701C52.035 24.9086 50.7111 23.5833 50.7111 21.9497C50.7111 20.316 52.035 18.9907 53.6701 18.9907H85.3628C86.998 18.9907 88.3218 20.316 88.3218 21.9497C88.3218 23.5833 86.998 24.9086 85.3628 24.9086Z" fill="#2C2F40"/>
<path d="M52.0627 58.5024C52.5975 56.9358 52.5936 55.2991 52.1421 53.8057L59.4856 39.1202C60.2161 37.6585 59.6243 35.8808 58.1625 35.1503C56.7015 34.419 54.9238 35.0116 54.1926 36.4733L47.9294 48.9982C44.186 47.1342 38.4984 44.3062 33.9166 42.0276C29.6538 39.9078 26.6116 38.0068 21.421 38.0068H18.8065C22.8481 38.0068 26.4552 36.1466 28.8162 33.2354C30.6178 31.02 31.695 28.1967 31.695 25.1198C31.695 18.0005 25.925 12.2305 18.805 12.2305C11.688 12.2305 5.91797 18.0005 5.91797 25.1198C5.91797 28.5388 7.24951 31.6457 9.42175 33.9513C11.7704 36.4487 15.1062 38.0068 18.8042 38.0075C13.8464 38.0075 8.99947 40.0164 5.51265 43.5125C1.95802 47.0579 0 51.7815 0 56.8133V66.3213C0 70.4146 2.65769 73.8976 6.3387 75.1366V91.6761C6.3387 93.3105 7.66331 94.6351 9.29768 94.6351H28.3138C29.9482 94.6351 31.2728 93.3105 31.2728 91.6761V58.4299C34.0784 59.8324 37.764 61.6748 40.7461 63.1666C42.8367 64.2115 45.2794 64.3055 47.4578 63.4194C49.63 62.5255 51.3045 60.7463 52.0512 58.537C52.055 58.5255 52.0589 58.5139 52.0627 58.5024Z" fill="#2C2F40"/>
</svg>
